<svg id="adv1" xmlns="http://www.w3.org/2000/svg" width="78" height="78" viewBox="0 0 78 78">
  <path id="Path_1971" data-name="Path 1971" d="M13.666,60.336a6.315,6.315,0,0,0-3.061.785A35.911,35.911,0,0,1,45.983,3.761a1.524,1.524,0,0,0,.6-2.988A38.984,38.984,0,0,0,38.85,0,38.93,38.93,0,0,0,0,39.01,39.183,39.183,0,0,0,8.36,63.186a6.36,6.36,0,1,0,5.306-2.85Zm2.361,8.77A3.362,3.362,0,1,1,17,66.736,3.309,3.309,0,0,1,16.026,69.106Zm0,0" transform="translate(0 0)" fill="#0b7362"/>
  <path id="Path_1972" data-name="Path 1972" d="M69.339,14.812a6.431,6.431,0,0,0-.8-8.074,6.387,6.387,0,0,0-9.014,9.051A6.359,6.359,0,0,0,67.1,16.88a35.911,35.911,0,0,1-35.31,57.373,1.524,1.524,0,0,0-.6,2.989A39.01,39.01,0,0,0,38.85,78,38.93,38.93,0,0,0,77.7,38.99,39.186,39.186,0,0,0,69.339,14.812Zm-7.665-1.177a3.33,3.33,0,1,1,2.361.982A3.337,3.337,0,0,1,61.674,13.635Zm0,0" transform="translate(0.3 0)" fill="#1b6220"/>
  <path id="Path_1973" data-name="Path 1973" d="M32.7,65.244a1.526,1.526,0,0,0,1.526,1.526H43.77A1.526,1.526,0,0,0,45.3,65.244V62.286a23.894,23.894,0,0,0,5.727-2.373L53.111,62a1.525,1.525,0,0,0,2.158,0l6.743-6.748a1.526,1.526,0,0,0,0-2.158l-2.086-2.086A23.894,23.894,0,0,0,62.3,45.282h2.947a1.526,1.526,0,0,0,1.526-1.526V34.216a1.526,1.526,0,0,0-1.526-1.526H62.3a23.9,23.9,0,0,0-2.373-5.726L62,24.889a1.526,1.526,0,0,0,0-2.159l-6.749-6.743a1.526,1.526,0,0,0-2.158,0L51.022,18.06A23.894,23.894,0,0,0,45.3,15.687V12.756A1.526,1.526,0,0,0,43.77,11.23H34.229A1.526,1.526,0,0,0,32.7,12.756v2.931a23.874,23.874,0,0,0-5.726,2.373l-2.072-2.072a1.526,1.526,0,0,0-2.158,0L16,22.731a1.525,1.525,0,0,0,0,2.158l2.075,2.075A23.89,23.89,0,0,0,15.7,32.69H12.759a1.526,1.526,0,0,0-1.526,1.525l-.005,9.541a1.525,1.525,0,0,0,1.526,1.526H15.7a23.894,23.894,0,0,0,2.373,5.727l-2.086,2.086a1.526,1.526,0,0,0,0,2.158L22.731,62a1.526,1.526,0,0,0,1.079.448h0A1.526,1.526,0,0,0,24.889,62l2.088-2.088A23.914,23.914,0,0,0,32.7,62.286ZM27.575,56.7a1.526,1.526,0,0,0-1.907.2L23.81,58.764l-4.586-4.59,1.856-1.857a1.525,1.525,0,0,0,.2-1.907,20.885,20.885,0,0,1-2.89-6.975A1.526,1.526,0,0,0,16.9,42.23H14.28l0-6.489H16.9a1.526,1.526,0,0,0,1.492-1.205,20.887,20.887,0,0,1,2.89-6.975,1.525,1.525,0,0,0-.2-1.907L19.236,23.81l4.59-4.586,1.842,1.843a1.527,1.527,0,0,0,1.907.2,20.876,20.876,0,0,1,6.975-2.89,1.527,1.527,0,0,0,1.205-1.492V14.282h6.489v2.605a1.525,1.525,0,0,0,1.205,1.492,20.894,20.894,0,0,1,6.975,2.89,1.525,1.525,0,0,0,1.907-.2l1.843-1.842,4.59,4.586-1.844,1.844a1.525,1.525,0,0,0-.2,1.907,20.9,20.9,0,0,1,2.89,6.975A1.525,1.525,0,0,0,61.1,35.742h2.622V42.23H61.1a1.526,1.526,0,0,0-1.492,1.205,20.882,20.882,0,0,1-2.89,6.975,1.526,1.526,0,0,0,.2,1.907l1.856,1.856-4.586,4.59-1.858-1.857a1.525,1.525,0,0,0-1.907-.2,20.9,20.9,0,0,1-6.975,2.89,1.526,1.526,0,0,0-1.205,1.492v2.633H35.755V61.086a1.527,1.527,0,0,0-1.205-1.492A20.887,20.887,0,0,1,27.575,56.7Zm0,0" transform="translate(0 0)" fill="#0b7362"/>
  <path id="Path_1974" data-name="Path 1974" d="M51.39,38.85A12.54,12.54,0,1,0,38.85,51.39,12.554,12.554,0,0,0,51.39,38.85Zm-22.044,0a9.5,9.5,0,1,1,9.5,9.5A9.515,9.515,0,0,1,29.346,38.85Zm0,0" transform="translate(0.15 0.15)" fill="#0b7362"/>
  <path id="Path_1975" data-name="Path 1975" d="M52.824,5.74a1.519,1.519,0,1,0-1.072-.445A1.529,1.529,0,0,0,52.824,5.74Zm0,0" transform="translate(0.206 0)" fill="#1b2162"/>
  <path id="Path_1976" data-name="Path 1976" d="M24.943,71.988a1.518,1.518,0,1,0,1.073.445A1.53,1.53,0,0,0,24.943,71.988Zm0,0" transform="translate(0.094 0.3)" fill="#1b2162"/>
</svg>
