<?xml version="1.0"?>
<svg xmlns="http://www.w3.org/2000/svg" xmlns:xlink="http://www.w3.org/1999/xlink" version="1.1" id="Capa_1" x="0px" y="0px" viewBox="0 0 496.941 496.941" style="enable-background:new 0 0 496.941 496.941;" xml:space="preserve" width="512px" height="512px"><g><g>
	<g>
		<g>
			<path d="M472.094,0H24.847C11.294,0,0,11.294,0,24.847v344.094c0,13.553,11.294,24.847,24.847,24.847h166.4l-21.082,43.671     h-9.035c-28.612,0-51.953,23.341-51.953,51.953c0,4.518,3.012,7.529,7.529,7.529h263.529c4.518,0,7.529-3.012,7.529-7.529     c0-0.753,0-0.753,0-1.506c-0.753-27.859-24.094-50.447-51.953-50.447h-9.035l-21.082-43.671h166.4     c13.553,0,24.847-11.294,24.847-24.847V24.847C496.941,11.294,485.647,0,472.094,0z M336.565,452.518     c17.318,0,32.376,12.8,35.388,29.365H124.988c3.765-16.565,18.071-29.365,36.141-29.365     C216.094,452.518,268.047,452.518,336.565,452.518z M310.212,437.459H186.729l21.082-43.671h80.565L310.212,437.459z      M481.882,368.941c0,6.024-4.518,9.788-9.788,9.788c-18.071,0-357.647,0-447.247,0c-5.271,0-9.788-3.765-9.788-9.788v-54.965     h466.823V368.941z M481.882,299.671H15.059V24.847c0-5.271,4.518-9.788,9.788-9.788h447.247c5.271,0,9.788,4.518,9.788,9.788     V299.671z" data-original="#000000" class="active-path" data-old_color="#000000" fill="#FFFFFF"/>
			<path d="M248.471,370.447c13.553,0,24.847-11.294,24.847-24.847s-11.294-24.847-24.847-24.847s-24.847,11.294-24.847,24.847     S234.918,370.447,248.471,370.447z M248.471,335.812c5.271,0,9.788,4.518,9.788,9.788c0,5.271-4.518,9.788-9.788,9.788     s-9.788-4.518-9.788-9.788C238.682,340.329,243.2,335.812,248.471,335.812z" data-original="#000000" class="active-path" data-old_color="#000000" fill="#FFFFFF"/>
			<path d="M390.776,173.176c2.259-1.506,3.765-4.518,3.012-7.529c-0.753-3.012-0.753-6.776-3.765-7.529l-88.094-24.847     c-2.259-0.753-5.271,0-7.529,2.259c-2.259,2.259-3.012,4.518-2.259,7.529l24.847,88.094c0.753,3.012,3.012,5.271,6.023,5.271     c3.012,0.753,6.024-0.753,7.529-3.012l11.294-17.318l24.847,24.847c1.506,1.506,3.765,2.259,5.271,2.259     c1.506,0,3.765-0.753,5.271-2.259l21.082-21.082c3.012-3.012,3.012-7.529,0-10.541l-24.847-24.847L390.776,173.176z      M383.247,213.082l-10.541,10.541l-25.6-25.6c-1.506-1.506-3.012-2.259-5.271-2.259h-0.753c-2.259,0-4.518,1.506-5.271,3.012     l-7.529,11.294l-17.318-59.482l59.482,17.318l-11.294,7.529c-2.259,1.506-3.012,3.012-3.012,5.271s0.753,4.518,2.259,6.023     L383.247,213.082z" data-original="#000000" class="active-path" data-old_color="#000000" fill="#FFFFFF"/>
			<path d="M425.412,48.188c-60.988-21.082-120.471-21.835-177.694-1.506c-60.988-20.329-120.471-20.329-177.694,1.506     c-3.765,0.753-5.271,3.765-5.271,6.776v219.859c0,2.259,0.753,4.518,3.012,6.023c1.506,0.753,3.765,1.506,6.776,0.753     c55.718-16.565,112.188-17.318,167.906-0.753c2.259,1.506,7.529,2.259,10.541,0c55.718-15.812,112.188-15.812,167.906,0.753     c0.753,0,1.506,0,2.259,0c1.506,0,3.012-0.753,4.518-1.506c2.259-1.506,3.012-3.765,3.012-6.023V54.965     C430.682,51.953,428.424,48.941,425.412,48.188z M238.682,263.529c-26.353-6.776-52.706-10.541-78.306-10.541     c-26.353,0-53.459,3.765-80.565,10.541V60.235c51.2-18.071,104.659-18.071,158.871-0.753V263.529z M414.118,264.282     c-27.106-7.529-53.459-10.541-80.565-10.541c-26.353,0-52.706,3.765-78.306,10.541v-204.8     c51.953-17.318,104.659-17.318,158.871,0.753V264.282z" data-original="#000000" class="active-path" data-old_color="#000000" fill="#FFFFFF"/>
			<path d="M98.635,96.376c0,4.518,3.765,7.529,7.529,7.529h97.129c4.518,0,7.529-3.012,7.529-7.529s-3.012-7.529-7.529-7.529     h-97.129C101.647,88.847,98.635,91.859,98.635,96.376z" data-original="#000000" class="active-path" data-old_color="#000000" fill="#FFFFFF"/>
			<path d="M203.294,128h-97.129c-4.518,0-7.529,3.012-7.529,7.529s3.765,7.529,7.529,7.529h97.129c4.518,0,7.529-3.012,7.529-7.529     S207.812,128,203.294,128z" data-original="#000000" class="active-path" data-old_color="#000000" fill="#FFFFFF"/>
			<path d="M203.294,166.4h-97.129c-4.518,0-7.529,3.012-7.529,7.529c0,4.518,3.765,7.529,7.529,7.529h97.129     c4.518,0,7.529-3.012,7.529-7.529C210.824,169.412,207.812,166.4,203.294,166.4z" data-original="#000000" class="active-path" data-old_color="#000000" fill="#FFFFFF"/>
			<path d="M203.294,205.553h-97.129c-4.518,0-7.529,3.012-7.529,7.529s3.012,7.529,7.529,7.529h97.129     c4.518,0,7.529-3.012,7.529-7.529S207.812,205.553,203.294,205.553z" data-original="#000000" class="active-path" data-old_color="#000000" fill="#FFFFFF"/>
			<path d="M281.6,96.376c0,4.518,3.012,7.529,7.529,7.529h97.882c4.518,0,7.529-3.012,7.529-7.529s-3.012-7.529-7.529-7.529     h-97.882C284.612,88.847,281.6,91.859,281.6,96.376z" data-original="#000000" class="active-path" data-old_color="#000000" fill="#FFFFFF"/>
		</g>
	</g>
</g></g> </svg>
