<?xml version="1.0"?>
<svg xmlns="http://www.w3.org/2000/svg" height="512px" viewBox="0 0 60 60" width="512px"><g><g id="Page-1" fill="none" fill-rule="evenodd"><g id="002---Desktop-Reading" fill="rgb(0,0,0)" fill-rule="nonzero" transform="translate(0 -1)"><path id="Shape" d="m32 45h-4c-.5522847 0-1 .4477153-1 1s.4477153 1 1 1h4c.5522847 0 1-.4477153 1-1s-.4477153-1-1-1z" data-original="#000000" class="active-path" data-old_color="#000000" fill="#FFFFFF"/><path id="Shape" d="m56 7h-5.18c-.4165044-1.20238616-1.5475247-2.01014321-2.82-2.014h-1v-1.986c-.0014929-.54080879-.2197818-1.05843447-.606-1.437-.3809413-.37517418-.8985558-.57853566-1.433-.563-5.0322414.244643-10.0359796.90117253-14.961 1.963-4.9250204-1.06182747-9.9287586-1.718357-14.961-1.963-.5344646-.01565274-1.0521235.18772615-1.433.563-.3862182.37856553-.6045071.89619121-.606 1.437v1.986h-1c-1.2724753.00385679-2.40349564.81161384-2.82 2.014h-5.18c-2.209139 0-4 1.790861-4 4v36c0 2.209139 1.790861 4 4 4h17.078c-.5332748 1.0141828-1.3115114 1.8790429-2.264 2.516-1.1398368.7282282-1.8250833 1.9914389-1.814 3.344v1.14c0 1.6568542 1.3431458 3 3 3h20c1.6568542 0 3-1.3431458 3-3v-1.14c.0110207-1.3530633-.6746223-2.6166865-1.815-3.345-.9523603-.6363853-1.7303249-1.5009814-2.263-2.515h17.078c2.209139 0 4-1.790861 4-4v-36c0-2.209139-1.790861-4-4-4zm2 4v30h-2v-29c0-.5522847-.4477153-1-1-1h-4v-2h5c1.1045695 0 2 .8954305 2 2zm-52 30v-28h3v21.985c0 1.6568542 1.3431458 3 3 3h36c1.6568542 0 3-1.3431458 3-3v-21.985h3v28zm25-36.2c4.6121805-.96657597 9.2933179-1.5684365 14-1.8l-.007 27c-4.7032962.2146661-9.3822323.8011632-13.993 1.754zm14.042 27.2c1.0902027-.0180603 1.9630783-.9096596 1.958-2v-23.014h1c.5522847 0 1 .44771525 1 1v27c0 .5522847-.4477153 1-1 1h-17v-2.186c4.6259592-.9688629 9.321234-1.5707355 14.042-1.8zm-16.042-27.2v26.954c-4.6130447-.9533394-9.2943467-1.5398397-14-1.754l-.011-23.96c0-.019.011-.035.011-.054s-.01-.035-.011-.054v-2.932c4.710334.23137636 9.3951416.83323586 14.011 1.8zm-18 3.186c0-.55228475.4477153-1 1-1h1v23.014c-.0050783 1.0903404.8677973 1.9819397 1.958 2 4.7207418.2295385 9.4159951.8314083 14.042 1.8v2.189h-17c-.5522847 0-1-.4477153-1-1zm-7 1.014h5v2h-4c-.55228475 0-1 .4477153-1 1v29h-2v-30c0-1.1045695.8954305-2 2-2zm36 50h-20c-.5522847 0-1-.4477153-1-1v-1h22v1c0 .5522847-.4477153 1-1 1zm-.178-4h-19.644c1.390016-1.0241823 2.4756784-2.4067514 3.141-4h13.362c.6653652 1.593223 1.7510192 2.9757814 3.141 4zm18.178-8c0 1.1045695-.8954305 2-2 2h-52c-1.1045695 0-2-.8954305-2-2v-4h56z" data-original="#000000" class="active-path" data-old_color="#000000" fill="#FFFFFF"/></g></g></g> </svg>
